<svg xmlns="http://www.w3.org/2000/svg" height="800" width="1200" viewBox="-105.6 -170.26 915.2 1021.56"><path d="M0 0h.13C.09.01.03.02 0 .03zm541.83 21.82c.65-.69 1.37-1.31 2.16-1.85.05 29.01.01 58.03.02 87.04-.07 11.79.36 23.59-.73 35.34-33.21.06-66.41.03-99.62.02 32.7-40.2 65.44-80.37 98.17-120.55zm-37.25 573.95c12.47-1.88 25.86.02 36.52 7.04 8.77 5.64 14.98 14.96 17.01 25.17 2.35 12.03.38 25.24-6.94 35.28-7.74 10.92-21 17.01-34.17 17.66-12.67.84-26.01-2.72-35.5-11.42-16.58-14.98-18.06-43.53-3.14-60.15 6.71-7.54 16.34-12.04 26.22-13.58m4.92 24.89c-4.74 1.1-8.85 4.56-10.61 9.11-2.82 7.1-1.74 16.07 3.77 21.62 5.51 5.53 15.32 5.76 21.1.51 6.58-5.9 7.6-16.56 3.41-24.11-3.41-6.01-11.06-8.84-17.67-7.13zm54.94-23.28c9.12-.02 18.25 0 27.37-.01 7.94 13.87 15.66 27.87 23.69 41.69-.27-13.9-.75-27.79-1.11-41.68 8.72-.02 17.44-.01 26.17 0 .01 27.12 0 54.24.01 81.36-9.41-.02-18.83.09-28.23-.05-7.61-13.02-14.93-26.22-22.93-38.99.36 13.02.78 26.04 1.14 39.06-8.7-.03-17.41 0-26.12-.02.01-27.12 0-54.24.01-81.36zm83.38-.01H704v22.82h-30.3c-.01 2.3-.01 4.61-.01 6.92 9.52.02 19.04 0 28.56.02 0 7.1 0 14.2-.01 21.3-9.52.03-19.04-.02-28.56.03 0 2.49.01 4.98.02 7.48 10.1 0 20.2-.01 30.3 0v22.81c-18.73 0-37.45.01-56.18 0-.01-27.13-.02-54.25 0-81.38zm-558.3.39c.83 6.55.27 13.14.21 19.71-5.47.19-10.95.06-16.43.08 5.4-6.6 10.69-13.3 16.22-19.79z" fill="#0a5a9b"/><path d="M233.96 8.96c44.56-4.83 90.26-.99 132.95 12.93 31.61 10.23 61.95 25.5 87.2 47.31-33.26 41.07-66.51 82.13-99.8 123.18-6.62-7.41-14.33-13.88-22.99-18.79-17.3-9.86-37.53-13.74-57.31-13.05-21.58.57-43.2 7.82-59.93 21.63-20.8 16.88-32.79 42.91-35.33 69.28-2.24 24 .92 49.06 12.25 70.58 9.74 19.06 26.11 34.73 45.84 43.14 22.17 9.62 47.52 10.07 70.76 4.28 20.1-5.05 38.64-16.58 51.24-33.14 35.77 38.91 71.55 77.81 107.31 116.73-14.72 14.42-31.61 26.53-49.62 36.49-31.17 17.17-65.42 28.67-100.59 34.01-43.54 6.56-88.61 4.94-131.07-7.11-35.04-9.86-68.33-26.57-96.19-50.11-26.11-21.83-47.23-49.42-62.18-79.96C9 351.46 1.1 312.41 0 273.56v-16.18c.41-9.85 1.01-19.71 2.31-29.5 7.46-59.41 36.8-116.15 82.13-155.47 41.54-36.22 95-57.44 149.52-63.45zm310.03 11.01c53.34.07 106.67.01 160.01.03v494.19H543.33c-.06-123.95.03-247.89-.05-371.84 1.09-11.75.66-23.55.73-35.34-.01-29.01.03-58.03-.02-87.04zM23.03 600.13c16.47-8.04 37.62-6.27 52.09 5.19-5.43 6.89-10.8 13.89-16.68 20.4-6.58-7.65-20.54-6.77-25.93 1.86-4.82 7.7-3.57 19.33 3.93 24.91 7.01 5.08 17.57 3.48 23.15-3.02 5.73 6.52 11.77 12.77 17.54 19.25-17.74 16.24-48.82 16.73-65.65-1.12-5.46-5.94-9.34-13.51-10.4-21.54-.09-5.7-.22-11.41.08-17.1 2.2-12.34 10.56-23.39 21.87-28.83zm66.45-2.78c9.03.05 18.05-.01 27.08.03.01 27.12 0 54.24.01 81.36-8.89.07-17.78-.08-26.67.09-.36-20.45-.02-40.91-.17-61.36.06-6.57.62-13.16-.21-19.71zm34.52-.07c9.1.24 18.22-.05 27.33.15 7.78 13.89 15.6 27.77 23.53 41.59-.05-13.92-.99-27.82-.9-41.73 8.65.17 17.31.05 25.96.07.05 27.11.03 54.22.01 81.34-9.41-.07-18.81.08-28.21-.08-7.56-13-14.99-26.1-22.81-38.94.12 13 .75 26 1.04 39.01-8.69.01-17.39-.03-26.08.02-.01-27.14-.27-54.3.13-81.43zm83.2.09c19.41.02 38.83-.04 58.25.03-.03 7.59.01 15.19-.02 22.78-10.77.01-21.53.01-32.3 0 0 2.31-.01 4.62 0 6.93 9.5.03 19-.02 28.5.03-.03 7.1.05 14.21-.04 21.32-9.48-.05-18.97 0-28.45-.03-.01 2.5-.02 5-.01 7.5 10.76.02 21.53 0 32.3.01.04 7.58-.05 15.15.05 22.73-19.42.2-38.86.03-58.29.08-.01-27.13-.01-54.25.01-81.38zm65.41.13c12.01-.31 24.03-.04 36.05-.14 4.35 12.73 8.62 25.49 12.94 38.23.68 1.92 1.1 3.98 2.3 5.68 4.33-14.56 8.67-29.13 12.8-43.75 12.41-.36 24.85-.03 37.27-.17.06 27.14.03 54.28.01 81.41-8.94-.01-17.88-.02-26.83.01.19-15.37.63-30.74.74-46.11-.3.52-.89 1.57-1.18 2.09-4.94 14.67-9.67 29.41-14.72 44.04-6.47-.11-12.95.06-19.42-.09-4.06-12.69-8.26-25.32-12.38-37.98-.97-2.77-1.59-5.68-3.03-8.25.32 15.38.71 30.76 1.31 46.12-8.61.29-17.25.24-25.85.03.11-27.04.12-54.08-.01-81.12zm138.44-.21c9.73.24 19.47-.1 29.2.18 10.48 27.14 21.24 54.17 31.78 81.28-9.98.01-19.97-.01-29.95.01-1.46-3.97-2.87-7.96-4.29-11.93-8.63-.03-17.27-.01-25.9-.02-1.4 3.97-2.7 7.97-4.09 11.95-9.69-.02-19.38.01-29.07-.01 10.64-27.2 21.34-54.4 32.32-81.46m7.43 48.51c4.38.01 8.76.02 13.15 0-2.16-6.6-4.31-13.19-6.49-19.78-2.35 6.55-4.43 13.19-6.66 19.78z" fill="#1b82ea"/></svg>